<mxfile host="Electron" modified="2024-07-05T11:54:28.554Z" agent="Mozilla/5.0 (Macintosh; Intel Mac OS X 10_15_7) AppleWebKit/537.36 (KHTML, like Gecko) draw.io/24.6.4 Chrome/124.0.6367.207 Electron/30.0.6 Safari/537.36" etag="-DEnGV2Vv_8ocZzbEEyM" version="24.6.4" type="device">
  <diagram name="Page-1" id="ScNB52taixEkTcWcDN-9">
    <mxGraphModel dx="3022" dy="2100" grid="1" gridSize="10" guides="1" tooltips="1" connect="1" arrows="1" fold="1" page="1" pageScale="1" pageWidth="827" pageHeight="1169" math="0" shadow="0">
      <root>
        <mxCell id="0" />
        <mxCell id="1" parent="0" />
        <mxCell id="T4fwRRBMgYO_krk1jYnV-1" value="User" style="swimlane;fontStyle=1;align=center;verticalAlign=top;childLayout=stackLayout;horizontal=1;startSize=26;horizontalStack=0;resizeParent=1;resizeParentMax=0;resizeLast=0;collapsible=1;marginBottom=0;whiteSpace=wrap;html=1;" vertex="1" parent="1">
          <mxGeometry x="-570" y="150" width="200" height="174" as="geometry" />
        </mxCell>
        <mxCell id="T4fwRRBMgYO_krk1jYnV-2" value="userId&lt;div&gt;name&lt;/div&gt;&lt;div&gt;phone&lt;/div&gt;&lt;div&gt;Location&lt;/div&gt;&lt;div&gt;List&amp;lt;Order&amp;gt;&lt;/div&gt;" style="text;strokeColor=none;fillColor=none;align=left;verticalAlign=top;spacingLeft=4;spacingRight=4;overflow=hidden;rotatable=0;points=[[0,0.5],[1,0.5]];portConstraint=eastwest;whiteSpace=wrap;html=1;" vertex="1" parent="T4fwRRBMgYO_krk1jYnV-1">
          <mxGeometry y="26" width="200" height="114" as="geometry" />
        </mxCell>
        <mxCell id="T4fwRRBMgYO_krk1jYnV-3" value="" style="line;strokeWidth=1;fillColor=none;align=left;verticalAlign=middle;spacingTop=-1;spacingLeft=3;spacingRight=3;rotatable=0;labelPosition=right;points=[];portConstraint=eastwest;strokeColor=inherit;" vertex="1" parent="T4fwRRBMgYO_krk1jYnV-1">
          <mxGeometry y="140" width="200" height="8" as="geometry" />
        </mxCell>
        <mxCell id="T4fwRRBMgYO_krk1jYnV-4" value="+ method(type): type" style="text;strokeColor=none;fillColor=none;align=left;verticalAlign=top;spacingLeft=4;spacingRight=4;overflow=hidden;rotatable=0;points=[[0,0.5],[1,0.5]];portConstraint=eastwest;whiteSpace=wrap;html=1;" vertex="1" parent="T4fwRRBMgYO_krk1jYnV-1">
          <mxGeometry y="148" width="200" height="26" as="geometry" />
        </mxCell>
        <mxCell id="T4fwRRBMgYO_krk1jYnV-5" value="Restaurant" style="swimlane;fontStyle=1;align=center;verticalAlign=top;childLayout=stackLayout;horizontal=1;startSize=26;horizontalStack=0;resizeParent=1;resizeParentMax=0;resizeLast=0;collapsible=1;marginBottom=0;whiteSpace=wrap;html=1;" vertex="1" parent="1">
          <mxGeometry x="-1190" y="230" width="190" height="134" as="geometry" />
        </mxCell>
        <mxCell id="T4fwRRBMgYO_krk1jYnV-6" value="Map&amp;lt;foodType,List&amp;lt;Items&amp;gt;&amp;gt;" style="text;strokeColor=none;fillColor=none;align=left;verticalAlign=top;spacingLeft=4;spacingRight=4;overflow=hidden;rotatable=0;points=[[0,0.5],[1,0.5]];portConstraint=eastwest;whiteSpace=wrap;html=1;" vertex="1" parent="T4fwRRBMgYO_krk1jYnV-5">
          <mxGeometry y="26" width="190" height="74" as="geometry" />
        </mxCell>
        <mxCell id="T4fwRRBMgYO_krk1jYnV-7" value="" style="line;strokeWidth=1;fillColor=none;align=left;verticalAlign=middle;spacingTop=-1;spacingLeft=3;spacingRight=3;rotatable=0;labelPosition=right;points=[];portConstraint=eastwest;strokeColor=inherit;" vertex="1" parent="T4fwRRBMgYO_krk1jYnV-5">
          <mxGeometry y="100" width="190" height="8" as="geometry" />
        </mxCell>
        <mxCell id="T4fwRRBMgYO_krk1jYnV-8" value="+ method(type): type" style="text;strokeColor=none;fillColor=none;align=left;verticalAlign=top;spacingLeft=4;spacingRight=4;overflow=hidden;rotatable=0;points=[[0,0.5],[1,0.5]];portConstraint=eastwest;whiteSpace=wrap;html=1;" vertex="1" parent="T4fwRRBMgYO_krk1jYnV-5">
          <mxGeometry y="108" width="190" height="26" as="geometry" />
        </mxCell>
        <mxCell id="T4fwRRBMgYO_krk1jYnV-9" value="Payment" style="swimlane;fontStyle=1;align=center;verticalAlign=top;childLayout=stackLayout;horizontal=1;startSize=26;horizontalStack=0;resizeParent=1;resizeParentMax=0;resizeLast=0;collapsible=1;marginBottom=0;whiteSpace=wrap;html=1;" vertex="1" parent="1">
          <mxGeometry x="-350" y="730" width="170" height="154" as="geometry" />
        </mxCell>
        <mxCell id="T4fwRRBMgYO_krk1jYnV-10" value="paymenId&lt;div&gt;PaymentStatus&lt;/div&gt;&lt;div&gt;date&lt;/div&gt;&lt;div&gt;amount&lt;br&gt;PaymentStrategy&lt;/div&gt;" style="text;strokeColor=none;fillColor=none;align=left;verticalAlign=top;spacingLeft=4;spacingRight=4;overflow=hidden;rotatable=0;points=[[0,0.5],[1,0.5]];portConstraint=eastwest;whiteSpace=wrap;html=1;" vertex="1" parent="T4fwRRBMgYO_krk1jYnV-9">
          <mxGeometry y="26" width="170" height="94" as="geometry" />
        </mxCell>
        <mxCell id="T4fwRRBMgYO_krk1jYnV-11" value="" style="line;strokeWidth=1;fillColor=none;align=left;verticalAlign=middle;spacingTop=-1;spacingLeft=3;spacingRight=3;rotatable=0;labelPosition=right;points=[];portConstraint=eastwest;strokeColor=inherit;" vertex="1" parent="T4fwRRBMgYO_krk1jYnV-9">
          <mxGeometry y="120" width="170" height="8" as="geometry" />
        </mxCell>
        <mxCell id="T4fwRRBMgYO_krk1jYnV-12" value="+ method(type): type" style="text;strokeColor=none;fillColor=none;align=left;verticalAlign=top;spacingLeft=4;spacingRight=4;overflow=hidden;rotatable=0;points=[[0,0.5],[1,0.5]];portConstraint=eastwest;whiteSpace=wrap;html=1;" vertex="1" parent="T4fwRRBMgYO_krk1jYnV-9">
          <mxGeometry y="128" width="170" height="26" as="geometry" />
        </mxCell>
        <mxCell id="T4fwRRBMgYO_krk1jYnV-13" value="Zomato" style="swimlane;fontStyle=1;align=center;verticalAlign=top;childLayout=stackLayout;horizontal=1;startSize=26;horizontalStack=0;resizeParent=1;resizeParentMax=0;resizeLast=0;collapsible=1;marginBottom=0;whiteSpace=wrap;html=1;" vertex="1" parent="1">
          <mxGeometry x="-920" y="170" width="210" height="164" as="geometry" />
        </mxCell>
        <mxCell id="T4fwRRBMgYO_krk1jYnV-14" value="List&amp;lt;User&amp;gt;users&lt;div&gt;List&amp;lt;Restaurants&amp;gt;&lt;/div&gt;&lt;div&gt;List&amp;lt;DeliveryParteners&amp;gt;&lt;/div&gt;" style="text;strokeColor=none;fillColor=none;align=left;verticalAlign=top;spacingLeft=4;spacingRight=4;overflow=hidden;rotatable=0;points=[[0,0.5],[1,0.5]];portConstraint=eastwest;whiteSpace=wrap;html=1;" vertex="1" parent="T4fwRRBMgYO_krk1jYnV-13">
          <mxGeometry y="26" width="210" height="104" as="geometry" />
        </mxCell>
        <mxCell id="T4fwRRBMgYO_krk1jYnV-15" value="" style="line;strokeWidth=1;fillColor=none;align=left;verticalAlign=middle;spacingTop=-1;spacingLeft=3;spacingRight=3;rotatable=0;labelPosition=right;points=[];portConstraint=eastwest;strokeColor=inherit;" vertex="1" parent="T4fwRRBMgYO_krk1jYnV-13">
          <mxGeometry y="130" width="210" height="8" as="geometry" />
        </mxCell>
        <mxCell id="T4fwRRBMgYO_krk1jYnV-16" value="+ method(type): type" style="text;strokeColor=none;fillColor=none;align=left;verticalAlign=top;spacingLeft=4;spacingRight=4;overflow=hidden;rotatable=0;points=[[0,0.5],[1,0.5]];portConstraint=eastwest;whiteSpace=wrap;html=1;" vertex="1" parent="T4fwRRBMgYO_krk1jYnV-13">
          <mxGeometry y="138" width="210" height="26" as="geometry" />
        </mxCell>
        <mxCell id="T4fwRRBMgYO_krk1jYnV-17" value="CreditCardStrategy" style="swimlane;fontStyle=1;align=center;verticalAlign=top;childLayout=stackLayout;horizontal=1;startSize=26;horizontalStack=0;resizeParent=1;resizeParentMax=0;resizeLast=0;collapsible=1;marginBottom=0;whiteSpace=wrap;html=1;" vertex="1" parent="1">
          <mxGeometry x="54" y="1130" width="160" height="86" as="geometry" />
        </mxCell>
        <mxCell id="T4fwRRBMgYO_krk1jYnV-18" value="+ field: type" style="text;strokeColor=none;fillColor=none;align=left;verticalAlign=top;spacingLeft=4;spacingRight=4;overflow=hidden;rotatable=0;points=[[0,0.5],[1,0.5]];portConstraint=eastwest;whiteSpace=wrap;html=1;" vertex="1" parent="T4fwRRBMgYO_krk1jYnV-17">
          <mxGeometry y="26" width="160" height="26" as="geometry" />
        </mxCell>
        <mxCell id="T4fwRRBMgYO_krk1jYnV-19" value="" style="line;strokeWidth=1;fillColor=none;align=left;verticalAlign=middle;spacingTop=-1;spacingLeft=3;spacingRight=3;rotatable=0;labelPosition=right;points=[];portConstraint=eastwest;strokeColor=inherit;" vertex="1" parent="T4fwRRBMgYO_krk1jYnV-17">
          <mxGeometry y="52" width="160" height="8" as="geometry" />
        </mxCell>
        <mxCell id="T4fwRRBMgYO_krk1jYnV-20" value="+ method(type): type" style="text;strokeColor=none;fillColor=none;align=left;verticalAlign=top;spacingLeft=4;spacingRight=4;overflow=hidden;rotatable=0;points=[[0,0.5],[1,0.5]];portConstraint=eastwest;whiteSpace=wrap;html=1;" vertex="1" parent="T4fwRRBMgYO_krk1jYnV-17">
          <mxGeometry y="60" width="160" height="26" as="geometry" />
        </mxCell>
        <mxCell id="T4fwRRBMgYO_krk1jYnV-21" value="UpiStrategy" style="swimlane;fontStyle=1;align=center;verticalAlign=top;childLayout=stackLayout;horizontal=1;startSize=26;horizontalStack=0;resizeParent=1;resizeParentMax=0;resizeLast=0;collapsible=1;marginBottom=0;whiteSpace=wrap;html=1;" vertex="1" parent="1">
          <mxGeometry x="-160" y="1130" width="160" height="86" as="geometry" />
        </mxCell>
        <mxCell id="T4fwRRBMgYO_krk1jYnV-22" value="+ field: type" style="text;strokeColor=none;fillColor=none;align=left;verticalAlign=top;spacingLeft=4;spacingRight=4;overflow=hidden;rotatable=0;points=[[0,0.5],[1,0.5]];portConstraint=eastwest;whiteSpace=wrap;html=1;" vertex="1" parent="T4fwRRBMgYO_krk1jYnV-21">
          <mxGeometry y="26" width="160" height="26" as="geometry" />
        </mxCell>
        <mxCell id="T4fwRRBMgYO_krk1jYnV-23" value="" style="line;strokeWidth=1;fillColor=none;align=left;verticalAlign=middle;spacingTop=-1;spacingLeft=3;spacingRight=3;rotatable=0;labelPosition=right;points=[];portConstraint=eastwest;strokeColor=inherit;" vertex="1" parent="T4fwRRBMgYO_krk1jYnV-21">
          <mxGeometry y="52" width="160" height="8" as="geometry" />
        </mxCell>
        <mxCell id="T4fwRRBMgYO_krk1jYnV-24" value="+ method(type): type" style="text;strokeColor=none;fillColor=none;align=left;verticalAlign=top;spacingLeft=4;spacingRight=4;overflow=hidden;rotatable=0;points=[[0,0.5],[1,0.5]];portConstraint=eastwest;whiteSpace=wrap;html=1;" vertex="1" parent="T4fwRRBMgYO_krk1jYnV-21">
          <mxGeometry y="60" width="160" height="26" as="geometry" />
        </mxCell>
        <mxCell id="T4fwRRBMgYO_krk1jYnV-25" value="DebitCardStrategy" style="swimlane;fontStyle=1;align=center;verticalAlign=top;childLayout=stackLayout;horizontal=1;startSize=26;horizontalStack=0;resizeParent=1;resizeParentMax=0;resizeLast=0;collapsible=1;marginBottom=0;whiteSpace=wrap;html=1;" vertex="1" parent="1">
          <mxGeometry x="-350" y="1130" width="160" height="86" as="geometry" />
        </mxCell>
        <mxCell id="T4fwRRBMgYO_krk1jYnV-26" value="+ field: type" style="text;strokeColor=none;fillColor=none;align=left;verticalAlign=top;spacingLeft=4;spacingRight=4;overflow=hidden;rotatable=0;points=[[0,0.5],[1,0.5]];portConstraint=eastwest;whiteSpace=wrap;html=1;" vertex="1" parent="T4fwRRBMgYO_krk1jYnV-25">
          <mxGeometry y="26" width="160" height="26" as="geometry" />
        </mxCell>
        <mxCell id="T4fwRRBMgYO_krk1jYnV-27" value="" style="line;strokeWidth=1;fillColor=none;align=left;verticalAlign=middle;spacingTop=-1;spacingLeft=3;spacingRight=3;rotatable=0;labelPosition=right;points=[];portConstraint=eastwest;strokeColor=inherit;" vertex="1" parent="T4fwRRBMgYO_krk1jYnV-25">
          <mxGeometry y="52" width="160" height="8" as="geometry" />
        </mxCell>
        <mxCell id="T4fwRRBMgYO_krk1jYnV-28" value="+ method(type): type" style="text;strokeColor=none;fillColor=none;align=left;verticalAlign=top;spacingLeft=4;spacingRight=4;overflow=hidden;rotatable=0;points=[[0,0.5],[1,0.5]];portConstraint=eastwest;whiteSpace=wrap;html=1;" vertex="1" parent="T4fwRRBMgYO_krk1jYnV-25">
          <mxGeometry y="60" width="160" height="26" as="geometry" />
        </mxCell>
        <mxCell id="T4fwRRBMgYO_krk1jYnV-29" value="&lt;p style=&quot;margin:0px;margin-top:4px;text-align:center;&quot;&gt;&lt;i&gt;&amp;lt;&amp;lt;Interface&amp;gt;&amp;gt;&lt;/i&gt;&lt;br&gt;&lt;b&gt;PaymentStrategy&lt;/b&gt;&lt;/p&gt;&lt;hr size=&quot;1&quot; style=&quot;border-style:solid;&quot;&gt;&lt;p style=&quot;margin:0px;margin-left:4px;&quot;&gt;+ field1: Type&lt;br&gt;+ field2: Type&lt;/p&gt;&lt;hr size=&quot;1&quot; style=&quot;border-style:solid;&quot;&gt;&lt;p style=&quot;margin:0px;margin-left:4px;&quot;&gt;+ method1(Type): Type&lt;br&gt;+ method2(Type, Type): Type&lt;/p&gt;" style="verticalAlign=top;align=left;overflow=fill;html=1;whiteSpace=wrap;" vertex="1" parent="1">
          <mxGeometry x="-130" y="890" width="190" height="140" as="geometry" />
        </mxCell>
        <mxCell id="T4fwRRBMgYO_krk1jYnV-31" value="" style="endArrow=block;dashed=1;endFill=0;endSize=12;html=1;rounded=0;exitX=0.588;exitY=0.012;exitDx=0;exitDy=0;exitPerimeter=0;entryX=0.75;entryY=1;entryDx=0;entryDy=0;" edge="1" parent="1" source="T4fwRRBMgYO_krk1jYnV-17" target="T4fwRRBMgYO_krk1jYnV-29">
          <mxGeometry width="160" relative="1" as="geometry">
            <mxPoint x="470" y="880" as="sourcePoint" />
            <mxPoint x="630" y="880" as="targetPoint" />
          </mxGeometry>
        </mxCell>
        <mxCell id="T4fwRRBMgYO_krk1jYnV-32" value="" style="endArrow=block;dashed=1;endFill=0;endSize=12;html=1;rounded=0;entryX=0.5;entryY=1;entryDx=0;entryDy=0;exitX=0.5;exitY=0;exitDx=0;exitDy=0;" edge="1" parent="1" source="T4fwRRBMgYO_krk1jYnV-21" target="T4fwRRBMgYO_krk1jYnV-29">
          <mxGeometry width="160" relative="1" as="geometry">
            <mxPoint x="390" y="950" as="sourcePoint" />
            <mxPoint x="550" y="950" as="targetPoint" />
          </mxGeometry>
        </mxCell>
        <mxCell id="T4fwRRBMgYO_krk1jYnV-33" value="" style="endArrow=block;dashed=1;endFill=0;endSize=12;html=1;rounded=0;entryX=0.25;entryY=1;entryDx=0;entryDy=0;exitX=0.338;exitY=-0.035;exitDx=0;exitDy=0;exitPerimeter=0;" edge="1" parent="1" source="T4fwRRBMgYO_krk1jYnV-25" target="T4fwRRBMgYO_krk1jYnV-29">
          <mxGeometry width="160" relative="1" as="geometry">
            <mxPoint x="150" y="940" as="sourcePoint" />
            <mxPoint x="310" y="940" as="targetPoint" />
          </mxGeometry>
        </mxCell>
        <mxCell id="T4fwRRBMgYO_krk1jYnV-34" value="" style="endArrow=diamondThin;endFill=1;endSize=24;html=1;rounded=0;entryX=1.006;entryY=0.319;entryDx=0;entryDy=0;entryPerimeter=0;exitX=0.416;exitY=-0.029;exitDx=0;exitDy=0;exitPerimeter=0;" edge="1" parent="1" source="T4fwRRBMgYO_krk1jYnV-29" target="T4fwRRBMgYO_krk1jYnV-10">
          <mxGeometry width="160" relative="1" as="geometry">
            <mxPoint x="310" y="770" as="sourcePoint" />
            <mxPoint x="470" y="770" as="targetPoint" />
          </mxGeometry>
        </mxCell>
        <mxCell id="T4fwRRBMgYO_krk1jYnV-36" value="Location" style="swimlane;fontStyle=1;align=center;verticalAlign=top;childLayout=stackLayout;horizontal=1;startSize=26;horizontalStack=0;resizeParent=1;resizeParentMax=0;resizeLast=0;collapsible=1;marginBottom=0;whiteSpace=wrap;html=1;" vertex="1" parent="1">
          <mxGeometry x="-270" y="60" width="160" height="134" as="geometry" />
        </mxCell>
        <mxCell id="T4fwRRBMgYO_krk1jYnV-37" value="longitude&lt;div&gt;latitude&lt;/div&gt;&lt;div&gt;name&lt;/div&gt;" style="text;strokeColor=none;fillColor=none;align=left;verticalAlign=top;spacingLeft=4;spacingRight=4;overflow=hidden;rotatable=0;points=[[0,0.5],[1,0.5]];portConstraint=eastwest;whiteSpace=wrap;html=1;" vertex="1" parent="T4fwRRBMgYO_krk1jYnV-36">
          <mxGeometry y="26" width="160" height="74" as="geometry" />
        </mxCell>
        <mxCell id="T4fwRRBMgYO_krk1jYnV-38" value="" style="line;strokeWidth=1;fillColor=none;align=left;verticalAlign=middle;spacingTop=-1;spacingLeft=3;spacingRight=3;rotatable=0;labelPosition=right;points=[];portConstraint=eastwest;strokeColor=inherit;" vertex="1" parent="T4fwRRBMgYO_krk1jYnV-36">
          <mxGeometry y="100" width="160" height="8" as="geometry" />
        </mxCell>
        <mxCell id="T4fwRRBMgYO_krk1jYnV-39" value="+ method(type): type" style="text;strokeColor=none;fillColor=none;align=left;verticalAlign=top;spacingLeft=4;spacingRight=4;overflow=hidden;rotatable=0;points=[[0,0.5],[1,0.5]];portConstraint=eastwest;whiteSpace=wrap;html=1;" vertex="1" parent="T4fwRRBMgYO_krk1jYnV-36">
          <mxGeometry y="108" width="160" height="26" as="geometry" />
        </mxCell>
        <mxCell id="T4fwRRBMgYO_krk1jYnV-41" value="Item" style="swimlane;fontStyle=1;align=center;verticalAlign=top;childLayout=stackLayout;horizontal=1;startSize=26;horizontalStack=0;resizeParent=1;resizeParentMax=0;resizeLast=0;collapsible=1;marginBottom=0;whiteSpace=wrap;html=1;" vertex="1" parent="1">
          <mxGeometry x="-1190" y="440" width="200" height="144" as="geometry" />
        </mxCell>
        <mxCell id="T4fwRRBMgYO_krk1jYnV-42" value="itemId&lt;div&gt;itemName&lt;/div&gt;&lt;div&gt;price&lt;/div&gt;&lt;div&gt;ItemStatus&lt;/div&gt;" style="text;strokeColor=none;fillColor=none;align=left;verticalAlign=top;spacingLeft=4;spacingRight=4;overflow=hidden;rotatable=0;points=[[0,0.5],[1,0.5]];portConstraint=eastwest;whiteSpace=wrap;html=1;" vertex="1" parent="T4fwRRBMgYO_krk1jYnV-41">
          <mxGeometry y="26" width="200" height="84" as="geometry" />
        </mxCell>
        <mxCell id="T4fwRRBMgYO_krk1jYnV-43" value="" style="line;strokeWidth=1;fillColor=none;align=left;verticalAlign=middle;spacingTop=-1;spacingLeft=3;spacingRight=3;rotatable=0;labelPosition=right;points=[];portConstraint=eastwest;strokeColor=inherit;" vertex="1" parent="T4fwRRBMgYO_krk1jYnV-41">
          <mxGeometry y="110" width="200" height="8" as="geometry" />
        </mxCell>
        <mxCell id="T4fwRRBMgYO_krk1jYnV-44" value="+ method(type): type" style="text;strokeColor=none;fillColor=none;align=left;verticalAlign=top;spacingLeft=4;spacingRight=4;overflow=hidden;rotatable=0;points=[[0,0.5],[1,0.5]];portConstraint=eastwest;whiteSpace=wrap;html=1;" vertex="1" parent="T4fwRRBMgYO_krk1jYnV-41">
          <mxGeometry y="118" width="200" height="26" as="geometry" />
        </mxCell>
        <mxCell id="T4fwRRBMgYO_krk1jYnV-46" value="OrderItem" style="swimlane;fontStyle=1;align=center;verticalAlign=top;childLayout=stackLayout;horizontal=1;startSize=26;horizontalStack=0;resizeParent=1;resizeParentMax=0;resizeLast=0;collapsible=1;marginBottom=0;whiteSpace=wrap;html=1;" vertex="1" parent="1">
          <mxGeometry x="-820" y="440" width="160" height="124" as="geometry" />
        </mxCell>
        <mxCell id="T4fwRRBMgYO_krk1jYnV-47" value="totalItemCount&lt;div&gt;Item&lt;/div&gt;" style="text;strokeColor=none;fillColor=none;align=left;verticalAlign=top;spacingLeft=4;spacingRight=4;overflow=hidden;rotatable=0;points=[[0,0.5],[1,0.5]];portConstraint=eastwest;whiteSpace=wrap;html=1;" vertex="1" parent="T4fwRRBMgYO_krk1jYnV-46">
          <mxGeometry y="26" width="160" height="64" as="geometry" />
        </mxCell>
        <mxCell id="T4fwRRBMgYO_krk1jYnV-48" value="" style="line;strokeWidth=1;fillColor=none;align=left;verticalAlign=middle;spacingTop=-1;spacingLeft=3;spacingRight=3;rotatable=0;labelPosition=right;points=[];portConstraint=eastwest;strokeColor=inherit;" vertex="1" parent="T4fwRRBMgYO_krk1jYnV-46">
          <mxGeometry y="90" width="160" height="8" as="geometry" />
        </mxCell>
        <mxCell id="T4fwRRBMgYO_krk1jYnV-49" value="+ method(type): type" style="text;strokeColor=none;fillColor=none;align=left;verticalAlign=top;spacingLeft=4;spacingRight=4;overflow=hidden;rotatable=0;points=[[0,0.5],[1,0.5]];portConstraint=eastwest;whiteSpace=wrap;html=1;" vertex="1" parent="T4fwRRBMgYO_krk1jYnV-46">
          <mxGeometry y="98" width="160" height="26" as="geometry" />
        </mxCell>
        <mxCell id="T4fwRRBMgYO_krk1jYnV-50" value="Order" style="swimlane;fontStyle=1;align=center;verticalAlign=top;childLayout=stackLayout;horizontal=1;startSize=26;horizontalStack=0;resizeParent=1;resizeParentMax=0;resizeLast=0;collapsible=1;marginBottom=0;whiteSpace=wrap;html=1;" vertex="1" parent="1">
          <mxGeometry x="-550" y="430" width="180" height="174" as="geometry" />
        </mxCell>
        <mxCell id="T4fwRRBMgYO_krk1jYnV-51" value="orderId&lt;div&gt;orderDate&lt;/div&gt;&lt;div&gt;price&lt;/div&gt;&lt;div&gt;OrderItem&lt;br&gt;&lt;div&gt;User&lt;br&gt;&lt;/div&gt;&lt;div&gt;&lt;br&gt;&lt;/div&gt;&lt;/div&gt;" style="text;strokeColor=none;fillColor=none;align=left;verticalAlign=top;spacingLeft=4;spacingRight=4;overflow=hidden;rotatable=0;points=[[0,0.5],[1,0.5]];portConstraint=eastwest;whiteSpace=wrap;html=1;" vertex="1" parent="T4fwRRBMgYO_krk1jYnV-50">
          <mxGeometry y="26" width="180" height="114" as="geometry" />
        </mxCell>
        <mxCell id="T4fwRRBMgYO_krk1jYnV-52" value="" style="line;strokeWidth=1;fillColor=none;align=left;verticalAlign=middle;spacingTop=-1;spacingLeft=3;spacingRight=3;rotatable=0;labelPosition=right;points=[];portConstraint=eastwest;strokeColor=inherit;" vertex="1" parent="T4fwRRBMgYO_krk1jYnV-50">
          <mxGeometry y="140" width="180" height="8" as="geometry" />
        </mxCell>
        <mxCell id="T4fwRRBMgYO_krk1jYnV-53" value="+ method(type): type" style="text;strokeColor=none;fillColor=none;align=left;verticalAlign=top;spacingLeft=4;spacingRight=4;overflow=hidden;rotatable=0;points=[[0,0.5],[1,0.5]];portConstraint=eastwest;whiteSpace=wrap;html=1;" vertex="1" parent="T4fwRRBMgYO_krk1jYnV-50">
          <mxGeometry y="148" width="180" height="26" as="geometry" />
        </mxCell>
        <mxCell id="T4fwRRBMgYO_krk1jYnV-54" value="DeliveryPartner" style="swimlane;fontStyle=1;align=center;verticalAlign=top;childLayout=stackLayout;horizontal=1;startSize=26;horizontalStack=0;resizeParent=1;resizeParentMax=0;resizeLast=0;collapsible=1;marginBottom=0;whiteSpace=wrap;html=1;" vertex="1" parent="1">
          <mxGeometry x="-560" y="-50" width="180" height="164" as="geometry" />
        </mxCell>
        <mxCell id="T4fwRRBMgYO_krk1jYnV-55" value="userId&lt;div&gt;name&lt;/div&gt;&lt;div&gt;phone&lt;/div&gt;&lt;div&gt;Location&lt;/div&gt;&lt;div&gt;PartnerStatus&lt;/div&gt;" style="text;strokeColor=none;fillColor=none;align=left;verticalAlign=top;spacingLeft=4;spacingRight=4;overflow=hidden;rotatable=0;points=[[0,0.5],[1,0.5]];portConstraint=eastwest;whiteSpace=wrap;html=1;" vertex="1" parent="T4fwRRBMgYO_krk1jYnV-54">
          <mxGeometry y="26" width="180" height="104" as="geometry" />
        </mxCell>
        <mxCell id="T4fwRRBMgYO_krk1jYnV-56" value="" style="line;strokeWidth=1;fillColor=none;align=left;verticalAlign=middle;spacingTop=-1;spacingLeft=3;spacingRight=3;rotatable=0;labelPosition=right;points=[];portConstraint=eastwest;strokeColor=inherit;" vertex="1" parent="T4fwRRBMgYO_krk1jYnV-54">
          <mxGeometry y="130" width="180" height="8" as="geometry" />
        </mxCell>
        <mxCell id="T4fwRRBMgYO_krk1jYnV-57" value="+ method(type): type" style="text;strokeColor=none;fillColor=none;align=left;verticalAlign=top;spacingLeft=4;spacingRight=4;overflow=hidden;rotatable=0;points=[[0,0.5],[1,0.5]];portConstraint=eastwest;whiteSpace=wrap;html=1;" vertex="1" parent="T4fwRRBMgYO_krk1jYnV-54">
          <mxGeometry y="138" width="180" height="26" as="geometry" />
        </mxCell>
        <mxCell id="T4fwRRBMgYO_krk1jYnV-58" value="" style="endArrow=diamondThin;endFill=1;endSize=24;html=1;rounded=0;entryX=0.533;entryY=1.038;entryDx=0;entryDy=0;entryPerimeter=0;exitX=0.541;exitY=-0.026;exitDx=0;exitDy=0;exitPerimeter=0;" edge="1" parent="1" source="T4fwRRBMgYO_krk1jYnV-9" target="T4fwRRBMgYO_krk1jYnV-53">
          <mxGeometry width="160" relative="1" as="geometry">
            <mxPoint x="-230" y="660" as="sourcePoint" />
            <mxPoint x="-70" y="660" as="targetPoint" />
          </mxGeometry>
        </mxCell>
        <mxCell id="T4fwRRBMgYO_krk1jYnV-59" value="" style="endArrow=diamondThin;endFill=1;endSize=24;html=1;rounded=0;entryX=-0.006;entryY=0.43;entryDx=0;entryDy=0;entryPerimeter=0;exitX=1.013;exitY=0.672;exitDx=0;exitDy=0;exitPerimeter=0;" edge="1" parent="1" source="T4fwRRBMgYO_krk1jYnV-47" target="T4fwRRBMgYO_krk1jYnV-51">
          <mxGeometry width="160" relative="1" as="geometry">
            <mxPoint x="-660" y="501" as="sourcePoint" />
            <mxPoint x="-70" y="710" as="targetPoint" />
          </mxGeometry>
        </mxCell>
        <mxCell id="T4fwRRBMgYO_krk1jYnV-64" value="" style="endArrow=diamondThin;endFill=0;endSize=24;html=1;rounded=0;entryX=0;entryY=0.375;entryDx=0;entryDy=0;entryPerimeter=0;exitX=1.01;exitY=0.393;exitDx=0;exitDy=0;exitPerimeter=0;" edge="1" parent="1" source="T4fwRRBMgYO_krk1jYnV-42" target="T4fwRRBMgYO_krk1jYnV-47">
          <mxGeometry width="160" relative="1" as="geometry">
            <mxPoint x="-960" y="280" as="sourcePoint" />
            <mxPoint x="-800" y="280" as="targetPoint" />
          </mxGeometry>
        </mxCell>
        <mxCell id="T4fwRRBMgYO_krk1jYnV-65" value="" style="endArrow=diamondThin;endFill=0;endSize=24;html=1;rounded=0;entryX=0.57;entryY=-0.028;entryDx=0;entryDy=0;entryPerimeter=0;exitX=0.332;exitY=1;exitDx=0;exitDy=0;exitPerimeter=0;" edge="1" parent="1" source="T4fwRRBMgYO_krk1jYnV-8" target="T4fwRRBMgYO_krk1jYnV-41">
          <mxGeometry width="160" relative="1" as="geometry">
            <mxPoint x="-960" y="280" as="sourcePoint" />
            <mxPoint x="-800" y="280" as="targetPoint" />
          </mxGeometry>
        </mxCell>
        <mxCell id="T4fwRRBMgYO_krk1jYnV-67" value="" style="endArrow=diamondThin;endFill=0;endSize=24;html=1;rounded=0;entryX=1;entryY=0.5;entryDx=0;entryDy=0;exitX=0;exitY=0.5;exitDx=0;exitDy=0;" edge="1" parent="1" source="T4fwRRBMgYO_krk1jYnV-37" target="T4fwRRBMgYO_krk1jYnV-55">
          <mxGeometry width="160" relative="1" as="geometry">
            <mxPoint x="-860" y="310" as="sourcePoint" />
            <mxPoint x="-700" y="310" as="targetPoint" />
          </mxGeometry>
        </mxCell>
        <mxCell id="T4fwRRBMgYO_krk1jYnV-68" value="" style="endArrow=diamondThin;endFill=0;endSize=24;html=1;rounded=0;entryX=-0.014;entryY=0.375;entryDx=0;entryDy=0;entryPerimeter=0;exitX=1;exitY=0.5;exitDx=0;exitDy=0;" edge="1" parent="1" source="T4fwRRBMgYO_krk1jYnV-6" target="T4fwRRBMgYO_krk1jYnV-14">
          <mxGeometry width="160" relative="1" as="geometry">
            <mxPoint x="-850" y="320" as="sourcePoint" />
            <mxPoint x="-690" y="320" as="targetPoint" />
          </mxGeometry>
        </mxCell>
        <mxCell id="T4fwRRBMgYO_krk1jYnV-69" value="" style="endArrow=open;endFill=1;endSize=12;html=1;rounded=0;entryX=0.75;entryY=0;entryDx=0;entryDy=0;exitX=0.49;exitY=1.154;exitDx=0;exitDy=0;exitPerimeter=0;" edge="1" parent="1" source="T4fwRRBMgYO_krk1jYnV-4" target="T4fwRRBMgYO_krk1jYnV-50">
          <mxGeometry width="160" relative="1" as="geometry">
            <mxPoint x="-530" y="260" as="sourcePoint" />
            <mxPoint x="-370" y="260" as="targetPoint" />
          </mxGeometry>
        </mxCell>
        <mxCell id="T4fwRRBMgYO_krk1jYnV-70" value="" style="endArrow=diamondThin;endFill=0;endSize=24;html=1;rounded=0;entryX=1;entryY=0.43;entryDx=0;entryDy=0;exitX=-0.006;exitY=0.635;exitDx=0;exitDy=0;entryPerimeter=0;exitPerimeter=0;" edge="1" parent="1" source="T4fwRRBMgYO_krk1jYnV-37" target="T4fwRRBMgYO_krk1jYnV-2">
          <mxGeometry width="160" relative="1" as="geometry">
            <mxPoint x="-260" y="133" as="sourcePoint" />
            <mxPoint x="-370" y="38" as="targetPoint" />
          </mxGeometry>
        </mxCell>
        <mxCell id="T4fwRRBMgYO_krk1jYnV-71" value="" style="endArrow=diamondThin;endFill=0;endSize=24;html=1;rounded=0;entryX=1.005;entryY=0.644;entryDx=0;entryDy=0;entryPerimeter=0;exitX=-0.025;exitY=0.596;exitDx=0;exitDy=0;exitPerimeter=0;" edge="1" parent="1" source="T4fwRRBMgYO_krk1jYnV-2" target="T4fwRRBMgYO_krk1jYnV-14">
          <mxGeometry width="160" relative="1" as="geometry">
            <mxPoint x="-530" y="100" as="sourcePoint" />
            <mxPoint x="-370" y="100" as="targetPoint" />
          </mxGeometry>
        </mxCell>
        <mxCell id="T4fwRRBMgYO_krk1jYnV-72" value="" style="endArrow=diamondThin;endFill=0;endSize=24;html=1;rounded=0;entryX=1.014;entryY=0.279;entryDx=0;entryDy=0;entryPerimeter=0;exitX=-0.017;exitY=0.587;exitDx=0;exitDy=0;exitPerimeter=0;" edge="1" parent="1" source="T4fwRRBMgYO_krk1jYnV-55" target="T4fwRRBMgYO_krk1jYnV-14">
          <mxGeometry width="160" relative="1" as="geometry">
            <mxPoint x="-530" y="100" as="sourcePoint" />
            <mxPoint x="-370" y="100" as="targetPoint" />
          </mxGeometry>
        </mxCell>
        <mxCell id="T4fwRRBMgYO_krk1jYnV-73" value="Cart" style="swimlane;fontStyle=1;align=center;verticalAlign=top;childLayout=stackLayout;horizontal=1;startSize=26;horizontalStack=0;resizeParent=1;resizeParentMax=0;resizeLast=0;collapsible=1;marginBottom=0;whiteSpace=wrap;html=1;" vertex="1" parent="1">
          <mxGeometry x="-1000" y="-180" width="200" height="144" as="geometry" />
        </mxCell>
        <mxCell id="T4fwRRBMgYO_krk1jYnV-74" value="Orders" style="text;strokeColor=none;fillColor=none;align=left;verticalAlign=top;spacingLeft=4;spacingRight=4;overflow=hidden;rotatable=0;points=[[0,0.5],[1,0.5]];portConstraint=eastwest;whiteSpace=wrap;html=1;" vertex="1" parent="T4fwRRBMgYO_krk1jYnV-73">
          <mxGeometry y="26" width="200" height="84" as="geometry" />
        </mxCell>
        <mxCell id="T4fwRRBMgYO_krk1jYnV-75" value="" style="line;strokeWidth=1;fillColor=none;align=left;verticalAlign=middle;spacingTop=-1;spacingLeft=3;spacingRight=3;rotatable=0;labelPosition=right;points=[];portConstraint=eastwest;strokeColor=inherit;" vertex="1" parent="T4fwRRBMgYO_krk1jYnV-73">
          <mxGeometry y="110" width="200" height="8" as="geometry" />
        </mxCell>
        <mxCell id="T4fwRRBMgYO_krk1jYnV-76" value="+ method(type): type" style="text;strokeColor=none;fillColor=none;align=left;verticalAlign=top;spacingLeft=4;spacingRight=4;overflow=hidden;rotatable=0;points=[[0,0.5],[1,0.5]];portConstraint=eastwest;whiteSpace=wrap;html=1;" vertex="1" parent="T4fwRRBMgYO_krk1jYnV-73">
          <mxGeometry y="118" width="200" height="26" as="geometry" />
        </mxCell>
        <mxCell id="T4fwRRBMgYO_krk1jYnV-77" value="OrderData" style="swimlane;fontStyle=1;align=center;verticalAlign=top;childLayout=stackLayout;horizontal=1;startSize=26;horizontalStack=0;resizeParent=1;resizeParentMax=0;resizeLast=0;collapsible=1;marginBottom=0;whiteSpace=wrap;html=1;" vertex="1" parent="1">
          <mxGeometry x="200" y="-110" width="160" height="86" as="geometry" />
        </mxCell>
        <mxCell id="T4fwRRBMgYO_krk1jYnV-78" value="+ field: type" style="text;strokeColor=none;fillColor=none;align=left;verticalAlign=top;spacingLeft=4;spacingRight=4;overflow=hidden;rotatable=0;points=[[0,0.5],[1,0.5]];portConstraint=eastwest;whiteSpace=wrap;html=1;" vertex="1" parent="T4fwRRBMgYO_krk1jYnV-77">
          <mxGeometry y="26" width="160" height="26" as="geometry" />
        </mxCell>
        <mxCell id="T4fwRRBMgYO_krk1jYnV-79" value="" style="line;strokeWidth=1;fillColor=none;align=left;verticalAlign=middle;spacingTop=-1;spacingLeft=3;spacingRight=3;rotatable=0;labelPosition=right;points=[];portConstraint=eastwest;strokeColor=inherit;" vertex="1" parent="T4fwRRBMgYO_krk1jYnV-77">
          <mxGeometry y="52" width="160" height="8" as="geometry" />
        </mxCell>
        <mxCell id="T4fwRRBMgYO_krk1jYnV-80" value="+ method(type): type" style="text;strokeColor=none;fillColor=none;align=left;verticalAlign=top;spacingLeft=4;spacingRight=4;overflow=hidden;rotatable=0;points=[[0,0.5],[1,0.5]];portConstraint=eastwest;whiteSpace=wrap;html=1;" vertex="1" parent="T4fwRRBMgYO_krk1jYnV-77">
          <mxGeometry y="60" width="160" height="26" as="geometry" />
        </mxCell>
        <mxCell id="T4fwRRBMgYO_krk1jYnV-81" value="&lt;p style=&quot;margin:0px;margin-top:4px;text-align:center;&quot;&gt;&lt;i&gt;&amp;lt;&amp;lt;Interface&amp;gt;&amp;gt;&lt;/i&gt;&lt;br&gt;&lt;b&gt;Subject&lt;/b&gt;&lt;/p&gt;&lt;br&gt;&lt;hr size=&quot;1&quot; style=&quot;border-style:solid;&quot;&gt;&lt;p style=&quot;margin:0px;margin-left:4px;&quot;&gt;+&amp;nbsp;&lt;span style=&quot;font-family: &amp;quot;JetBrains Mono&amp;quot;, monospace; font-size: 9.8pt; background-color: rgb(255, 255, 255); color: rgb(0, 51, 179);&quot;&gt;void &lt;/span&gt;&lt;span style=&quot;font-family: &amp;quot;JetBrains Mono&amp;quot;, monospace; font-size: 9.8pt; background-color: rgb(255, 255, 255); color: rgb(0, 98, 122);&quot;&gt;registerObserver&lt;/span&gt;&lt;span style=&quot;font-family: &amp;quot;JetBrains Mono&amp;quot;, monospace; font-size: 9.8pt; background-color: rgb(255, 255, 255); color: rgb(8, 8, 8);&quot;&gt;(&lt;/span&gt;&lt;span style=&quot;font-family: &amp;quot;JetBrains Mono&amp;quot;, monospace; font-size: 9.8pt; background-color: rgb(255, 255, 255);&quot;&gt;Observer o&lt;/span&gt;&lt;span style=&quot;font-family: &amp;quot;JetBrains Mono&amp;quot;, monospace; font-size: 9.8pt; background-color: rgb(255, 255, 255); color: rgb(8, 8, 8);&quot;&gt;);&lt;/span&gt;&lt;/p&gt;&lt;div style=&quot;background-color:#ffffff;color:#080808&quot;&gt;&lt;pre style=&quot;font-family:&#39;JetBrains Mono&#39;,monospace;font-size:9.8pt;&quot;&gt;&lt;span style=&quot;color:#0033b3;&quot;&gt;void &lt;/span&gt;&lt;span style=&quot;color:#00627a;&quot;&gt;removeObserver&lt;/span&gt;(&lt;span style=&quot;color:#000000;&quot;&gt;Observer o&lt;/span&gt;);&lt;br&gt;&lt;span style=&quot;color:#0033b3;&quot;&gt;void &lt;/span&gt;&lt;span style=&quot;color:#00627a;&quot;&gt;notifyObservers&lt;/span&gt;();&lt;/pre&gt;&lt;/div&gt;" style="verticalAlign=top;align=left;overflow=fill;html=1;whiteSpace=wrap;" vertex="1" parent="1">
          <mxGeometry x="130" y="-360" width="320" height="160" as="geometry" />
        </mxCell>
        <mxCell id="T4fwRRBMgYO_krk1jYnV-82" value="&lt;p style=&quot;margin:0px;margin-top:4px;text-align:center;&quot;&gt;&lt;i&gt;&amp;lt;&amp;lt;Interface&amp;gt;&amp;gt;&lt;/i&gt;&lt;br&gt;&lt;b&gt;Observer&lt;/b&gt;&lt;/p&gt;&lt;hr size=&quot;1&quot; style=&quot;border-style:solid;&quot;&gt;&lt;p style=&quot;margin:0px;margin-left:4px;&quot;&gt;&lt;/p&gt;&lt;p style=&quot;margin:0px;margin-left:4px;&quot;&gt;+&lt;span style=&quot;font-family: &amp;quot;JetBrains Mono&amp;quot;, monospace; font-size: 9.8pt; background-color: rgb(255, 255, 255); color: rgb(0, 51, 179);&quot;&gt;void &lt;/span&gt;&lt;span style=&quot;font-family: &amp;quot;JetBrains Mono&amp;quot;, monospace; font-size: 9.8pt; background-color: rgb(255, 255, 255); color: rgb(0, 98, 122);&quot;&gt;update&lt;/span&gt;&lt;span style=&quot;font-family: &amp;quot;JetBrains Mono&amp;quot;, monospace; font-size: 9.8pt; background-color: rgb(255, 255, 255); color: rgb(8, 8, 8);&quot;&gt;(&lt;/span&gt;&lt;span style=&quot;font-family: &amp;quot;JetBrains Mono&amp;quot;, monospace; font-size: 9.8pt; background-color: rgb(255, 255, 255);&quot;&gt;Order orderDetails&lt;/span&gt;&lt;span style=&quot;font-family: &amp;quot;JetBrains Mono&amp;quot;, monospace; font-size: 9.8pt; background-color: rgb(255, 255, 255); color: rgb(8, 8, 8);&quot;&gt;);&lt;/span&gt;&lt;/p&gt;" style="verticalAlign=top;align=left;overflow=fill;html=1;whiteSpace=wrap;" vertex="1" parent="1">
          <mxGeometry x="-250" y="-560" width="300" height="146" as="geometry" />
        </mxCell>
        <mxCell id="T4fwRRBMgYO_krk1jYnV-87" value="" style="endArrow=block;dashed=1;endFill=0;endSize=12;html=1;rounded=0;entryX=0.367;entryY=1.025;entryDx=0;entryDy=0;entryPerimeter=0;exitX=0.421;exitY=-0.039;exitDx=0;exitDy=0;exitPerimeter=0;" edge="1" parent="1" source="T4fwRRBMgYO_krk1jYnV-77" target="T4fwRRBMgYO_krk1jYnV-81">
          <mxGeometry width="160" relative="1" as="geometry">
            <mxPoint x="-150" y="270" as="sourcePoint" />
            <mxPoint x="200" y="-150" as="targetPoint" />
          </mxGeometry>
        </mxCell>
        <mxCell id="T4fwRRBMgYO_krk1jYnV-88" value="" style="endArrow=block;dashed=1;endFill=0;endSize=12;html=1;rounded=0;exitX=0.667;exitY=-0.005;exitDx=0;exitDy=0;exitPerimeter=0;" edge="1" parent="1" source="T4fwRRBMgYO_krk1jYnV-5" target="T4fwRRBMgYO_krk1jYnV-82">
          <mxGeometry width="160" relative="1" as="geometry">
            <mxPoint x="-150" y="270" as="sourcePoint" />
            <mxPoint y="-100" as="targetPoint" />
          </mxGeometry>
        </mxCell>
        <mxCell id="T4fwRRBMgYO_krk1jYnV-89" value="" style="endArrow=block;dashed=1;endFill=0;endSize=12;html=1;rounded=0;entryX=0;entryY=0.658;entryDx=0;entryDy=0;entryPerimeter=0;exitX=1.013;exitY=0.62;exitDx=0;exitDy=0;exitPerimeter=0;" edge="1" parent="1" source="T4fwRRBMgYO_krk1jYnV-2" target="T4fwRRBMgYO_krk1jYnV-82">
          <mxGeometry width="160" relative="1" as="geometry">
            <mxPoint x="-200" y="11.329999999999984" as="sourcePoint" />
            <mxPoint x="-40" y="11.329999999999984" as="targetPoint" />
          </mxGeometry>
        </mxCell>
        <mxCell id="T4fwRRBMgYO_krk1jYnV-90" value="" style="endArrow=block;dashed=1;endFill=0;endSize=12;html=1;rounded=0;entryX=0;entryY=0.5;entryDx=0;entryDy=0;exitX=1.004;exitY=0.41;exitDx=0;exitDy=0;exitPerimeter=0;" edge="1" parent="1" source="T4fwRRBMgYO_krk1jYnV-55" target="T4fwRRBMgYO_krk1jYnV-82">
          <mxGeometry width="160" relative="1" as="geometry">
            <mxPoint x="-220" y="-20" as="sourcePoint" />
            <mxPoint x="-60" y="-20" as="targetPoint" />
          </mxGeometry>
        </mxCell>
      </root>
    </mxGraphModel>
  </diagram>
</mxfile>
